<svg width="16" height="16" viewBox="0 0 16 16" fill="none" xmlns="http://www.w3.org/2000/svg">
<path d="M14.9999 8.33333C14.9999 7.28 14.4166 6.36667 13.5679 5.93333C13.6706 5.64333 13.7266 5.33 13.7266 5C13.7266 3.52667 12.5866 2.33467 11.1813 2.33467C10.8679 2.33467 10.5679 2.39067 10.2906 2.50133C9.8786 1.61 9.0066 1 7.99993 1C6.99327 1 6.1226 1.61133 5.7086 2.5C5.43193 2.39 5.13127 2.33333 4.81793 2.33333C3.41127 2.33333 2.2726 3.52667 2.2726 5C2.2726 5.32933 2.32793 5.64267 2.4306 5.93333C1.5826 6.36667 0.999268 7.27867 0.999268 8.33333C0.999268 9.33 1.5206 10.1987 2.29393 10.6573C2.2806 10.7707 2.2726 10.884 2.2726 11C2.2726 12.4733 3.41127 13.6667 4.81793 13.6667C5.13127 13.6667 5.43127 13.6093 5.70793 13.5C6.12127 14.3893 6.99193 15 7.99927 15C9.00727 15 9.87793 14.3893 10.2906 13.5C10.5673 13.6087 10.8673 13.6653 11.1813 13.6653C12.5879 13.6653 13.7266 12.472 13.7266 10.9987C13.7266 10.8827 13.7186 10.7693 13.7046 10.6567C14.4766 10.1987 14.9999 9.33 14.9999 8.334V8.33333ZM10.5893 6.11067L7.69993 10.444C7.60327 10.5887 7.44527 10.6667 7.28327 10.6667C7.18793 10.6667 7.09127 10.64 7.00593 10.5827L6.92927 10.52L5.31927 8.91C5.12393 8.71467 5.12393 8.398 5.31927 8.20333C5.5146 8.00867 5.83127 8.00733 6.02593 8.20333L7.20593 9.38133L9.75593 5.55467C9.90927 5.32467 10.2199 5.264 10.4493 5.41667C10.6799 5.57 10.7426 5.88067 10.5893 6.11V6.11067Z" fill="white"/>
</svg>
